<?xml version="1.0" standalone="no"?>
<!DOCTYPE svg PUBLIC "-//W3C//DTD SVG 20010904//EN"
 "http://www.w3.org/TR/2001/REC-SVG-20010904/DTD/svg10.dtd">
<svg version="1.0" xmlns="http://www.w3.org/2000/svg"
 width="261.000000pt" height="124.000000pt" viewBox="0 0 261.000000 124.000000"
 preserveAspectRatio="xMidYMid meet">

<g transform="translate(0.000000,124.000000) scale(0.100000,-0.100000)"
fill="#000000" stroke="none">
<path d="M911 985 c-215 -47 -382 -145 -611 -356 -55 -51 -98 -94 -96 -97 3
-2 51 32 108 75 134 104 208 153 294 197 75 38 155 69 161 62 2 -2 -7 -20 -21
-41 -73 -107 -57 -270 35 -365 143 -147 387 -110 480 73 26 51 36 155 20 214
-6 22 -27 65 -47 93 l-36 52 34 -7 c149 -31 348 -131 348 -175 0 -26 -111
-170 -182 -235 -99 -92 -218 -138 -387 -151 -150 -11 -320 30 -504 123 -130
65 -208 67 -258 7 -13 -16 -12 -17 16 -9 59 17 96 8 167 -42 108 -75 151 -99
230 -129 69 -27 82 -28 233 -28 145 1 168 3 250 28 119 36 192 76 260 144 60
59 154 193 180 256 13 31 18 36 31 25 28 -23 23 -2 -14 53 -20 31 -59 75 -87
98 -63 52 -191 115 -275 134 -80 19 -242 19 -329 1z m224 -100 c14 -13 25 -22
25 -20 0 3 9 -3 21 -13 31 -25 70 -97 64 -115 -4 -8 -2 -18 4 -22 16 -9 13
-83 -5 -135 -73 -210 -351 -244 -470 -58 -13 21 -24 46 -24 57 0 11 -4 23 -10
26 -17 11 -11 102 11 159 21 59 90 131 132 139 12 2 68 5 125 6 97 1 104 0
127 -24z"/>
<path d="M922 825 c-67 -29 -105 -101 -100 -187 2 -33 11 -52 38 -82 79 -87
192 -88 273 -2 33 35 37 47 37 124 1 114 -137 195 -248 147z m166 -77 c2 -19
-2 -28 -18 -33 -37 -12 -64 27 -38 53 21 21 53 10 56 -20z m-70 -81 c4 -20
-25 -34 -40 -19 -15 15 -1 44 19 40 10 -2 19 -11 21 -21z m-83 -87 c14 -16 15
-20 4 -20 -16 0 -39 19 -39 32 0 14 16 9 35 -12z"/>
<path d="M770 731 c0 -6 4 -13 10 -16 6 -3 7 1 4 9 -7 18 -14 21 -14 7z"/>
<path d="M1760 875 l0 -105 68 2 67 2 -57 3 -58 4 0 99 c0 60 -4 100 -10 100
-6 0 -10 -42 -10 -105z"/>
<path d="M1942 918 c-7 -7 -12 -16 -12 -21 0 -5 7 -1 16 7 30 31 84 14 84 -26
0 -14 -8 -18 -36 -18 -19 0 -44 -5 -55 -10 -21 -12 -25 -50 -7 -68 14 -14 57
-16 78 -2 9 6 17 5 22 -3 4 -7 8 20 8 59 0 41 -5 75 -12 82 -16 16 -70 16 -86
0z m88 -87 c0 -47 -70 -68 -94 -28 -15 24 15 47 61 47 26 0 33 -4 33 -19z"/>
<path d="M2133 923 c26 -2 47 -8 47 -12 0 -4 -20 -34 -45 -65 -25 -32 -45 -62
-45 -67 0 -5 26 -8 58 -7 l57 2 -52 3 -53 4 50 66 c28 36 50 70 50 74 0 5 -26
8 -57 7 -57 -2 -57 -2 -10 -5z"/>
<path d="M2257 912 c-24 -26 -23 -104 1 -125 30 -28 112 -16 112 15 0 6 -8 4
-18 -5 -36 -33 -102 -10 -102 36 0 14 11 17 60 17 56 0 60 1 60 23 0 51 -78
77 -113 39z m87 -8 c31 -31 20 -44 -39 -44 -59 0 -68 10 -38 42 20 22 56 23
77 2z"/>
<path d="M2422 850 l1 -85 7 70 c3 39 3 77 -1 85 -5 8 -8 -23 -7 -70z"/>
<path d="M2445 920 c-7 -12 2 -12 30 0 19 8 19 9 -2 9 -12 1 -25 -3 -28 -9z"/>
<path d="M1764 607 c-3 -8 -3 -56 -2 -108 l3 -94 65 -1 c64 -1 64 -1 8 3 l-58
4 0 49 0 49 53 4 52 3 -52 2 -53 2 0 45 0 44 58 4 57 3 -63 2 c-44 1 -64 -2
-68 -11z"/>
<path d="M2105 545 c-50 -49 -23 -145 41 -145 30 0 64 16 64 31 0 6 -10 3 -22
-5 -30 -21 -54 -20 -78 4 -38 38 -27 50 45 50 36 0 65 2 65 4 0 24 -28 69 -47
77 -35 13 -41 12 -68 -16z m83 -7 c7 -7 12 -20 12 -30 0 -15 -9 -18 -55 -18
-41 0 -55 4 -55 14 0 38 70 62 98 34z"/>
<path d="M2282 558 c-17 -8 -22 -19 -20 -37 2 -20 12 -29 47 -41 48 -16 60
-32 41 -55 -16 -19 -54 -19 -74 0 -22 22 -32 18 -11 -5 35 -39 110 -17 103 30
-2 19 -14 28 -48 40 -51 18 -64 45 -28 59 16 6 30 5 45 -5 33 -21 42 -16 14 6
-26 22 -36 23 -69 8z"/>
<path d="M1946 493 c38 -99 39 -108 13 -127 -18 -13 -20 -16 -7 -16 10 0 22 8
27 19 19 34 71 184 66 189 -2 3 -7 -1 -9 -9 -3 -8 -15 -41 -27 -74 l-22 -59
-26 72 c-14 39 -29 72 -33 72 -4 0 4 -30 18 -67z"/>
</g>
</svg>
