<svg id="title" xmlns="http://www.w3.org/2000/svg" xmlns:xlink="http://www.w3.org/1999/xlink" viewBox="0 0 226.99 120.12"><defs><style>.cls-1{font-size:9px;font-family:MyriadPro-Regular, Myriad Pro;}.cls-1,.cls-2{fill:#231f20;}.cls-3{fill:#fff;}.cls-3,.cls-4,.cls-7{stroke:#231f20;}.cls-3,.cls-4,.cls-5,.cls-6,.cls-7{stroke-miterlimit:10;}.cls-4,.cls-5{stroke-width:4px;}.cls-4{fill:url(#radial-gradient);}.cls-5,.cls-6{fill:#f1f2f2;stroke:#f1f2f2;}.cls-7{fill:none;stroke-width:5px;}</style><radialGradient id="radial-gradient" cx="125.49" cy="53.18" r="25.59" gradientUnits="userSpaceOnUse"><stop offset="0.04" stop-color="#fff"/><stop offset="0.04" stop-color="#fef8f0"/><stop offset="0.05" stop-color="#fde5c8"/><stop offset="0.07" stop-color="#fbc788"/><stop offset="0.09" stop-color="#f89d30"/><stop offset="0.1" stop-color="#f7941d"/><stop offset="0.12" stop-color="#f5801e" stop-opacity="0.99"/><stop offset="0.17" stop-color="#f14c21" stop-opacity="0.98"/><stop offset="0.2" stop-color="#ed1c24" stop-opacity="0.96"/><stop offset="0.74" stop-color="#261e1d" stop-opacity="0.95"/><stop offset="0.89" stop-color="#130c0e" stop-opacity="0.95"/></radialGradient></defs><text class="cls-1" transform="translate(118.55 13.55)">001<tspan x="-23.15" y="10.8">0110010001100</tspan><tspan x="-32.36" y="21.6">11001101000011010</tspan><tspan x="-37.18" y="32.4">1001101100011111100</tspan><tspan x="-38.87" y="43.2">1001100010011000011 </tspan><tspan x="-36.59" y="54" xml:space="preserve">00011000               00011 </tspan><tspan x="-31.16" y="64.8">1100100111000110</tspan><tspan x="-20.86" y="75.6">111001101110</tspan></text><ellipse class="cls-2" cx="126.16" cy="53.07" rx="24.92" ry="23.64"/><path class="cls-3" d="M402.84,414.71" transform="translate(-191.7 -347.87)"/><path class="cls-2" d="M191.7,422.09c15.26-15.27,31-30.25,48.87-43a183,183,0,0,1,28.52-16.83,157.91,157.91,0,0,1,31.71-10.73,160.65,160.65,0,0,1,16.7-2.78c1.41-.16,2.82-.33,4.24-.42s2.82-.25,4.26-.29c2.87-.14,5.75-.19,8.62-.11a102.88,102.88,0,0,1,33.48,6.68c2.65,1,5.26,2.1,7.84,3.25s5.1,2.41,7.58,3.73l3.68,2c1.24.69,2.48,1.43,3.69,2.2a81.66,81.66,0,0,1,7.05,4.93,75.53,75.53,0,0,1,6.48,5.63c1,1,2,2,3,3.13s1.86,2.22,2.73,3.35a95.74,95.74,0,0,1,8.54,14.32l-1.17.94c-4.3-3.48-8.2-7.27-12.37-10.35a70.89,70.89,0,0,0-6.32-4.29c-2.18-1.35-4.42-2.59-6.68-3.75s-4.58-2.23-6.91-3.23c-1.17-.5-2.35-1-3.54-1.44l-3.64-1.38c-2.44-.89-4.87-1.77-7.33-2.56s-4.9-1.58-7.36-2.27a190.12,190.12,0,0,0-29.76-6.12A108.17,108.17,0,0,0,318.4,362,113.71,113.71,0,0,0,303,363.29a147.72,147.72,0,0,0-30,8.13,174.42,174.42,0,0,0-28.31,13.93c-18.29,10.83-35.14,24.35-52,37.85Z" transform="translate(-191.7 -347.87)"/><path class="cls-2" d="M197.32,435.43c2.11-1.64,4.14-3.37,6.5-5a23.13,23.13,0,0,1,3.87-2.14,18.67,18.67,0,0,1,4.65-1.29,26.15,26.15,0,0,1,9.32.52,51.6,51.6,0,0,1,8.36,2.68,154.53,154.53,0,0,1,14.74,7.37c2.29,1.22,4.5,2.39,6.7,3.37.55.26,1.09.51,1.64.73s1.08.48,1.61.67l1.64.61,1.85.66c9.84,3.52,19.23,6.86,28.87,8.87A107.53,107.53,0,0,0,302,454.68a121.87,121.87,0,0,0,15.29.24,128.47,128.47,0,0,0,30.17-5l3.67-1.12,3.62-1.25,3.57-1.37c1.14-.49,2.31-1,3.43-1.52a65.1,65.1,0,0,0,6.63-3.57,69.47,69.47,0,0,0,6.27-4.29,91.15,91.15,0,0,0,11.45-10.3c3.58-3.75,6.91-7.85,10.21-12q2.46-3.1,4.83-6.29c1.59-2.13,3.17-4.25,4.59-6.42,2.88-4.32,5.3-9,6.17-14.13l1.49.17c-.35,5.5-2.4,10.77-4.92,15.58-1.27,2.42-2.68,4.72-4.06,7s-2.82,4.56-4.28,6.82c-5.82,9-12.38,17.88-20.7,25.32a79.47,79.47,0,0,1-6.54,5.25,73.84,73.84,0,0,1-7.09,4.57c-1.22.71-2.48,1.35-3.74,2l-3.76,1.8-3.82,1.65-3.87,1.53a139.21,139.21,0,0,1-32.35,7.47c-5.51.63-11.06,1-16.63,1.08a124.63,124.63,0,0,1-16.9-.78c-2.8-.37-5.68-.83-8.46-1.44s-5.53-1.34-8.21-2.19a134.47,134.47,0,0,1-15.47-6l-1.84-.86-2-1c-.69-.33-1.32-.7-2-1.05s-1.31-.72-1.92-1.1c-2.5-1.52-4.86-3.1-7.06-4.72-4.43-3.22-8.46-6.46-12.57-9.18a58.11,58.11,0,0,0-6.29-3.67,21.62,21.62,0,0,0-6.35-2.09,12.56,12.56,0,0,0-3.24-.11,25.09,25.09,0,0,0-3.57.72c-2.47.65-5,1.63-7.73,2.28Z" transform="translate(-191.7 -347.87)"/><circle class="cls-4" cx="125.49" cy="53.18" r="25.59"/><circle class="cls-5" cx="135.63" cy="40.26" r="3.35"/><ellipse class="cls-6" cx="306.19" cy="415.08" rx="1.27" ry="4.01" transform="translate(-400.59 40.13) rotate(-50.57)"/><circle class="cls-7" cx="125.49" cy="53.18" r="44.4"/></svg>