<svg id="Layer_1" data-name="Layer 1" xmlns="http://www.w3.org/2000/svg" xmlns:xlink="http://www.w3.org/1999/xlink" width="363.31" height="124.15" viewBox="0 0 363.31 124.15"><defs><style>.cls-1{font-size:48px;font-family:SFProText-Thin, SF Pro Text;font-weight:200;}.cls-1,.cls-4,.cls-5{fill:#231f20;}.cls-2{letter-spacing:-0.02em;}.cls-3{letter-spacing:-0.02em;}.cls-4{font-size:9px;font-family:MyriadPro-Regular, Myriad Pro;}.cls-6{fill:#fff;}.cls-10,.cls-6,.cls-7{stroke:#231f20;}.cls-10,.cls-6,.cls-7,.cls-8,.cls-9{stroke-miterlimit:10;}.cls-7,.cls-8{stroke-width:4px;}.cls-7{fill:url(#radial-gradient);}.cls-8,.cls-9{fill:#f1f2f2;stroke:#f1f2f2;}.cls-10{fill:none;stroke-width:5px;}</style><radialGradient id="radial-gradient" cx="125.49" cy="57.19" r="25.59" gradientUnits="userSpaceOnUse"><stop offset="0.04" stop-color="#fff"/><stop offset="0.04" stop-color="#fef8f0"/><stop offset="0.05" stop-color="#fde5c8"/><stop offset="0.07" stop-color="#fbc788"/><stop offset="0.09" stop-color="#f89d30"/><stop offset="0.1" stop-color="#f7941d"/><stop offset="0.12" stop-color="#f5801e" stop-opacity="0.99"/><stop offset="0.17" stop-color="#f14c21" stop-opacity="0.98"/><stop offset="0.2" stop-color="#ed1c24" stop-opacity="0.96"/><stop offset="0.74" stop-color="#261e1d" stop-opacity="0.95"/><stop offset="0.89" stop-color="#130c0e" stop-opacity="0.95"/></radialGradient></defs><text class="cls-1" transform="translate(242.51 40.91)">La<tspan class="cls-2" x="52.13" y="0">z</tspan><tspan x="75.75" y="0">er</tspan><tspan x="0" y="57.6">E</tspan><tspan class="cls-3" x="27.33" y="57.6">y</tspan><tspan x="50.84" y="57.6">es</tspan></text><text class="cls-4" transform="translate(118.55 17.56)">001<tspan x="-23.15" y="10.8">0110010001100</tspan><tspan x="-32.36" y="21.6">11001101000011010</tspan><tspan x="-37.18" y="32.4">1001101100011111100</tspan><tspan x="-38.87" y="43.2">1001100010011000011 </tspan><tspan x="-36.59" y="54" xml:space="preserve">00011000               00011 </tspan><tspan x="-31.16" y="64.8">1100100111000110</tspan><tspan x="-20.86" y="75.6">111001101110</tspan></text><ellipse class="cls-5" cx="126.16" cy="57.08" rx="24.92" ry="23.64"/><path class="cls-6" d="M402.79,386.19" transform="translate(-191.65 -315.35)"/><path class="cls-5" d="M191.65,393.57c15.26-15.26,31-30.25,48.87-43A182.92,182.92,0,0,1,269,333.73,157.94,157.94,0,0,1,300.75,323a166.15,166.15,0,0,1,16.7-2.78c1.41-.16,2.82-.32,4.24-.42s2.82-.25,4.26-.29c2.87-.14,5.75-.18,8.62-.11a102.63,102.63,0,0,1,33.48,6.69q4,1.51,7.84,3.24c2.56,1.19,5.1,2.41,7.58,3.73l3.68,2c1.24.69,2.48,1.44,3.69,2.2a83.93,83.93,0,0,1,7.05,4.93,75.64,75.64,0,0,1,6.48,5.64c1,1,2,2,3,3.12s1.86,2.22,2.73,3.36a95.65,95.65,0,0,1,8.54,14.31l-1.17.94c-4.3-3.48-8.2-7.27-12.37-10.35a70.89,70.89,0,0,0-6.32-4.29c-2.18-1.35-4.42-2.58-6.68-3.75s-4.58-2.23-6.91-3.23c-1.17-.5-2.35-1-3.54-1.43L378,345.14c-2.44-.88-4.87-1.77-7.33-2.56s-4.9-1.58-7.36-2.26a189,189,0,0,0-29.76-6.12,106.61,106.61,0,0,0-15.21-.74A113.73,113.73,0,0,0,303,334.78a147.07,147.07,0,0,0-30.05,8.13,173.06,173.06,0,0,0-28.3,13.92c-18.3,10.84-35.15,24.36-52,37.86Z" transform="translate(-191.65 -315.35)"/><path class="cls-5" d="M197.27,406.91c2.11-1.64,4.14-3.37,6.5-5a23.13,23.13,0,0,1,3.87-2.14,18.79,18.79,0,0,1,4.65-1.29,26.15,26.15,0,0,1,9.32.53,52.58,52.58,0,0,1,8.36,2.67,156.92,156.92,0,0,1,14.74,7.37c2.3,1.23,4.5,2.39,6.71,3.38.55.25,1.08.51,1.63.73s1.08.47,1.61.66l1.64.62,1.85.65C268,418.66,277.38,422,287,424a104.79,104.79,0,0,0,14.88,2.16,121.87,121.87,0,0,0,15.29.25,128.48,128.48,0,0,0,30.17-5L351,420.3l3.62-1.24,3.57-1.38c1.14-.49,2.31-1,3.43-1.51a65.19,65.19,0,0,0,6.63-3.58,71.49,71.49,0,0,0,6.27-4.28A92,92,0,0,0,386,398c3.58-3.74,6.91-7.84,10.21-12q2.46-3.1,4.83-6.29c1.59-2.14,3.17-4.25,4.59-6.42,2.88-4.33,5.3-9,6.17-14.14l1.49.17c-.34,5.51-2.4,10.78-4.92,15.58-1.27,2.42-2.68,4.72-4.06,7s-2.82,4.57-4.28,6.83c-5.82,9-12.38,17.87-20.7,25.31a77.43,77.43,0,0,1-6.54,5.25,73.84,73.84,0,0,1-7.09,4.57c-1.22.72-2.48,1.35-3.74,2l-3.76,1.79-3.82,1.66-3.87,1.52a139.74,139.74,0,0,1-32.35,7.48c-5.51.62-11.06,1-16.63,1.07a121.47,121.47,0,0,1-16.9-.78c-2.79-.36-5.68-.83-8.45-1.44s-5.54-1.34-8.22-2.18a137.06,137.06,0,0,1-15.47-6l-1.84-.86-2-1c-.69-.33-1.32-.7-2-1.05s-1.3-.71-1.92-1.1c-2.5-1.52-4.86-3.1-7.06-4.72-4.43-3.22-8.46-6.46-12.57-9.18a58,58,0,0,0-6.29-3.66,21.65,21.65,0,0,0-6.35-2.1,12.56,12.56,0,0,0-3.24-.11,25.09,25.09,0,0,0-3.57.72c-2.47.65-5,1.63-7.73,2.29Z" transform="translate(-191.65 -315.35)"/><circle class="cls-7" cx="125.49" cy="57.19" r="25.59"/><circle class="cls-8" cx="135.63" cy="44.26" r="3.35"/><ellipse class="cls-9" cx="306.14" cy="386.57" rx="1.27" ry="4.01" transform="translate(-378.53 62.21) rotate(-50.57)"/><circle class="cls-10" cx="125.49" cy="57.19" r="44.4"/></svg>