<?xml version="1.0" encoding="utf-8"?>
<!-- Generator: Adobe Illustrator 25.4.1, SVG Export Plug-In . SVG Version: 6.00 Build 0)  -->
<svg version="1.1" id="Layer_1" xmlns="http://www.w3.org/2000/svg" xmlns:xlink="http://www.w3.org/1999/xlink" x="0px" y="0px"
	 viewBox="0 0 512 512" style="enable-background:new 0 0 512 512;" xml:space="preserve">
<style type="text/css">
	.st0{fill:none;stroke:#000000;stroke-width:32;stroke-miterlimit:10;}
</style>
<path class="st0" d="M177.9,494.1c-18.7,18.7-49.1,18.7-67.9,0l-92.1-92.2c-18.7-18.7-18.7-49.1,0-67.9l50.7-50.7l48,48
	c6.2,6.2,16.4,6.2,22.6,0c6.2-6.2,6.2-16.4,0-22.6l-48-48l41.4-41.4l48,48c6.2,6.2,16.4,6.2,22.6,0s6.2-16.4,0-22.6l-48-48
	l41.4-41.4l48,48c6.2,6.2,16.4,6.2,22.6,0s6.2-16.4,0-22.6l-48-48l41.4-41.4l48,48c6.2,6.2,16.4,6.2,22.6,0s6.2-16.4,0-22.6l-48-48
	L333.9,18c18.7-18.7,49.1-18.7,67.9,0l92.1,92.1c18.7,18.7,18.7,49.1,0,67.9L177.9,494.1z"/>
<path class="st0" d="M201,395"/>
</svg>
